<?xml version="1.0" encoding="UTF-8"?>
<svg width="343px" height="131px" viewBox="0 0 343 131" version="1.1" xmlns="http://www.w3.org/2000/svg">
    <g stroke="none" stroke-width="1" fill="none" fill-rule="evenodd">
        <g transform="translate(-280, -55.03)" fill="#000000" fill-rule="nonzero">
            <path d="M333.44,146.72 L321.44,146.72 C320.57,141.19 315.28,136.85 309.12,136.85 C299.01,136.85 293.8,144.83 293.8,156.2 C293.8,166.78 298.77,175.07 309.12,175.07 C316.23,175.07 320.89,170.49 321.91,162.44 L333.91,162.44 C332.65,176.65 322.93,185.5 309.12,185.5 C291.91,185.5 281.4,172.71 281.4,156.2 C281.4,139.54 291.67,126.43 309.12,126.43 C321.76,126.43 332.02,134.01 333.44,146.72 Z M347.09,127.77 L360.28,150.04 L373.39,127.77 L387.21,127.77 L366.28,162.51 L366.28,184.15 L353.88,184.15 L353.88,162.2 L333.11,127.77 L347.09,127.77 Z M437.38,146.72 L425.38,146.72 C424.51,141.19 419.22,136.85 413.06,136.85 C402.95,136.85 397.74,144.83 397.74,156.2 C397.74,166.78 402.71,175.07 413.06,175.07 C420.17,175.07 424.83,170.49 425.85,162.44 L437.85,162.44 C436.59,176.65 426.87,185.5 413.06,185.5 C395.85,185.5 385.34,172.71 385.34,156.2 C385.34,139.54 395.6,126.43 413.06,126.43 C425.69,126.43 435.96,134.01 437.38,146.72 Z M458.24,127.77 L458.24,173.73 L485.72,173.73 L485.72,184.15 L445.84,184.15 L445.84,127.77 L458.24,127.77 Z M503.99,127.77 L503.99,184.15 L491.59,184.15 L491.59,127.77 L503.99,127.77 Z M527.01,127.77 L550.54,165.59 L550.7,165.59 L550.7,127.77 L562.31,127.77 L562.31,184.15 L549.91,184.15 L526.46,146.4 L526.3,146.4 L526.3,184.15 L514.69,184.15 L514.69,127.77 L527.01,127.77 Z M621.95,146.33 L610.1,146.33 C608.6,140.01 604.18,136.85 598.18,136.85 C587.92,136.85 582.86,145.14 582.86,156.2 C582.86,166.07 587.36,175.07 598.18,175.07 C606.08,175.07 610.81,171.04 611.6,162.91 L599.12,162.91 L599.12,153.67 L622.81,153.67 L622.81,184.15 L614.91,184.15 L613.65,177.75 C609.54,183.04 604.17,185.49 598.17,185.49 C580.96,185.49 570.45,172.62 570.45,156.19 C570.45,139.45 580.71,126.42 598.17,126.42 C610.26,126.43 620.84,134.01 621.95,146.33 Z M325.86,73.72 L313.86,73.72 C313.46,68.03 310.15,65.19 302.8,65.19 C298.22,65.19 294.19,67.16 294.19,71.59 C294.19,75.7 296.56,76.49 309.19,79.64 C317.56,81.77 327.75,84.61 327.75,96.54 C327.75,107.2 319.3,114.62 304.3,114.62 C292.38,114.62 280.29,108.93 280.29,94.96 L280.29,94.57 L292.29,94.57 C292.29,102.54 298.84,104.99 304.69,104.99 C310.38,104.99 315.75,103.09 315.75,97.96 C315.75,94.41 312.99,92.2 306.04,90.46 C301.85,89.35 298.22,88.56 294.59,87.38 C286.06,84.54 282.19,79.72 282.19,72.54 C282.19,61.17 292.93,55.56 303.27,55.56 C315.36,55.56 325.86,60.93 325.86,73.72 Z M341.41,56.9 L350.33,95.28 L350.49,95.28 L360.28,56.9 L371.89,56.9 L381.52,95.75 L381.68,95.75 L390.92,56.9 L403.08,56.9 L387.92,113.28 L375.6,113.28 L366.05,74.9 L365.89,74.9 L356.49,113.28 L343.93,113.28 L329.01,56.9 L341.41,56.9 Z M420.87,56.9 L420.87,113.28 L408.47,113.28 L408.47,56.9 L420.87,56.9 Z M473.92,73.72 L461.92,73.72 C461.53,68.03 458.21,65.19 450.87,65.19 C446.29,65.19 442.26,67.16 442.26,71.59 C442.26,75.7 444.63,76.49 457.26,79.64 C465.63,81.77 475.82,84.61 475.82,96.54 C475.82,107.2 467.37,114.62 452.37,114.62 C440.45,114.62 428.37,108.93 428.37,94.96 L428.37,94.57 L440.37,94.57 C440.37,102.54 446.92,104.99 452.77,104.99 C458.46,104.99 463.82,103.09 463.82,97.96 C463.82,94.41 461.06,92.2 454.11,90.46 C449.92,89.35 446.29,88.56 442.66,87.38 C434.13,84.54 430.26,79.72 430.26,72.54 C430.26,61.17 441,55.56 451.34,55.56 C463.42,55.56 473.92,60.93 473.92,73.72 Z M525.84,73.72 L513.84,73.72 C513.45,68.03 510.13,65.19 502.79,65.19 C498.21,65.19 494.18,67.16 494.18,71.59 C494.18,75.7 496.55,76.49 509.18,79.64 C517.55,81.77 527.74,84.61 527.74,96.54 C527.74,107.2 519.29,114.62 504.29,114.62 C492.37,114.62 480.29,108.93 480.29,94.96 L480.29,94.57 L492.29,94.57 C492.29,102.54 498.84,104.99 504.69,104.99 C510.38,104.99 515.74,103.09 515.74,97.96 C515.74,94.41 512.98,92.2 506.03,90.46 C501.84,89.35 498.21,88.56 494.58,87.38 C486.05,84.54 482.18,79.72 482.18,72.54 C482.18,61.17 492.92,55.56 503.26,55.56 C515.34,55.56 525.84,60.93 525.84,73.72 Z"></path>
        </g>
    </g>
</svg>
